<?xml version="1.0" standalone="no"?>
<!DOCTYPE svg PUBLIC "-//W3C//DTD SVG 20010904//EN"
 "http://www.w3.org/TR/2001/REC-SVG-20010904/DTD/svg10.dtd">
<svg version="1.0" xmlns="http://www.w3.org/2000/svg"
 width="763.000000pt" height="763.000000pt" viewBox="0 0 763.000000 763.000000"
 preserveAspectRatio="xMidYMid meet">
<metadata>
Created by potrace 1.11, written by Peter Selinger 2001-2013
</metadata>
<g transform="translate(0.000000,763.000000) scale(0.100000,-0.100000)"
fill="#000000" stroke="none">
<path d="M170 6570 l0 -50 35 0 35 0 0 50 0 50 -35 0 -35 0 0 -50z"/>
<path d="M3780 6570 l0 -50 35 0 35 0 0 50 0 50 -35 0 -35 0 0 -50z"/>
<path d="M7390 6570 l0 -50 35 0 35 0 0 50 0 50 -35 0 -35 0 0 -50z"/>
<path d="M1592 6443 c-16 -21 -57 -75 -91 -121 -55 -74 -64 -82 -78 -70 -9 7
-59 54 -111 103 -51 50 -97 91 -101 93 -3 1 -30 -70 -60 -158 -59 -178 -51
-171 -131 -131 -19 10 -53 24 -75 31 -22 7 -60 23 -85 36 l-45 23 -3 -180 c-1
-98 -3 -179 -5 -180 -1 0 -64 -4 -139 -8 -75 -3 -139 -9 -143 -12 -3 -4 17
-80 44 -170 28 -90 51 -168 51 -174 -1 -5 -61 -39 -135 -74 -74 -36 -135 -66
-135 -68 0 -1 42 -57 92 -123 51 -67 97 -127 102 -134 7 -10 -16 -43 -79 -117
-48 -57 -96 -111 -106 -121 -25 -22 -24 -30 9 -49 75 -45 228 -142 236 -149 5
-5 -18 -73 -54 -161 -44 -105 -59 -153 -51 -158 6 -4 64 -13 129 -20 177 -18
159 7 147 -197 -5 -97 -7 -178 -3 -180 4 -3 33 5 65 16 32 12 66 24 76 27 17
5 18 -1 11 -118 -5 -68 -8 -134 -7 -145 1 -18 -9 -24 -59 -38 -190 -53 -344
-187 -458 -399 -40 -74 -110 -248 -110 -273 0 -12 495 -14 3535 -14 l3535 0 0
41 c0 101 -59 250 -135 338 -61 71 -115 111 -200 149 l-70 31 5 63 c12 147 3
361 -18 454 -38 169 -125 336 -231 443 -59 60 -186 130 -272 151 -68 16 -257
23 -324 12 -33 -5 -61 -9 -63 -7 -1 1 -10 49 -18 106 -78 525 -282 852 -611
979 -196 76 -469 78 -688 5 -93 -31 -271 -122 -286 -146 -4 -6 -27 11 -55 42
-79 85 -163 163 -229 214 -66 50 -168 115 -181 115 -6 0 -22 8 -35 18 -13 10
-46 26 -74 37 -27 10 -55 22 -61 27 -20 15 -226 59 -331 70 -199 21 -455 -28
-613 -117 -14 -8 -43 -24 -65 -36 -94 -52 -244 -192 -328 -307 -57 -78 -63
-83 -90 -78 -16 3 -35 6 -41 6 -36 1 -36 14 -2 195 19 99 33 181 33 181 -1 1
-64 -3 -141 -8 -105 -8 -140 -8 -146 1 -4 7 -17 83 -29 169 -12 86 -24 158
-26 160 -4 4 -140 -76 -214 -125 -19 -13 -37 -23 -41 -23 -4 0 -38 65 -76 145
-38 80 -72 145 -76 145 -3 0 -20 -17 -36 -37z m95 -363 c49 -11 194 -67 203
-79 3 -4 20 -16 39 -28 54 -33 149 -132 197 -205 54 -81 98 -175 134 -287 l28
-83 -33 -72 c-18 -39 -43 -105 -55 -146 -12 -41 -23 -76 -24 -77 -1 -1 -38 4
-81 12 -248 44 -484 -18 -705 -185 -124 -95 -203 -179 -274 -296 -42 -70 -108
-219 -126 -285 l-12 -44 -57 61 c-171 184 -259 457 -248 769 6 155 21 241 66
365 110 299 363 539 621 586 81 14 246 12 327 -6z"/>
<path d="M170 4090 l0 -50 35 0 35 0 0 50 0 50 -35 0 -35 0 0 -50z"/>
<path d="M7390 4090 l0 -50 35 0 35 0 0 50 0 50 -35 0 -35 0 0 -50z"/>
<path d="M1310 2903 c-8 -4 -20 -12 -27 -19 -7 -7 -23 -21 -35 -31 -30 -24
-102 -178 -127 -273 -11 -41 -37 -154 -56 -250 -54 -261 -106 -405 -178 -493
-25 -30 -45 -35 -89 -24 -53 14 -84 130 -54 200 5 9 4 17 -1 17 -5 0 -21 -33
-37 -72 -33 -84 -44 -183 -27 -226 26 -62 114 -69 182 -15 108 85 173 220 234
488 57 253 68 293 106 390 21 55 50 118 64 140 l24 40 1 -61 c0 -78 -17 -296
-31 -394 -6 -41 -33 -190 -60 -330 -27 -140 -49 -265 -49 -277 0 -30 14 -36
62 -28 54 9 134 87 177 174 17 33 73 188 125 344 90 274 149 416 202 494 35
52 40 54 16 8 -53 -106 -108 -314 -136 -523 -20 -140 -20 -209 -2 -305 16 -80
30 -113 71 -162 23 -28 30 -30 91 -30 l66 0 48 53 c35 37 56 52 75 52 25 0 26
3 24 43 -2 32 4 56 24 91 33 58 34 70 4 35 -57 -67 -168 -117 -228 -104 -57
13 -63 36 -56 228 4 131 12 197 30 277 28 119 100 317 158 433 22 43 39 87 39
99 0 20 -4 20 -61 15 -74 -8 -113 -36 -173 -121 -90 -128 -153 -269 -235 -521
-42 -129 -108 -274 -169 -370 -17 -27 -32 -47 -32 -44 0 4 11 89 25 190 53
394 106 842 101 855 -5 14 -57 18 -86 7z m650 -1073 c0 -11 -7 -20 -15 -20
-13 0 -14 4 -5 20 6 11 13 20 15 20 3 0 5 -9 5 -20z"/>
<path d="M6287 2726 c-31 -13 -68 -31 -82 -40 -13 -9 -31 -16 -38 -16 -35 0
-172 -368 -202 -540 -9 -52 -19 -166 -22 -252 -3 -87 -10 -158 -14 -158 -5 0
-9 -14 -9 -31 0 -35 -8 -35 108 -3 l62 16 0 68 c0 37 5 114 11 170 8 88 14
109 39 146 36 52 107 114 131 114 34 0 31 -28 -21 -200 -57 -191 -48 -302 28
-324 57 -16 106 7 188 89 73 73 74 75 74 125 l0 52 -39 -49 c-55 -69 -87 -96
-105 -90 -25 10 -19 71 19 208 20 68 38 156 42 194 5 66 4 72 -22 103 -15 17
-35 32 -46 32 -20 0 -84 -37 -129 -74 l-24 -21 17 25 c32 48 96 178 116 238
26 76 28 187 5 220 -19 27 -16 27 -87 -2z m43 -126 c0 -56 -27 -136 -77 -228
-44 -79 -127 -203 -120 -177 3 11 13 51 22 89 28 123 99 305 137 354 23 28 38
13 38 -38z m-375 -910 c-3 -5 -12 -10 -18 -10 -7 0 -6 4 3 10 19 12 23 12 15
0z"/>
<path d="M4286 2584 c-4 -15 -16 -46 -27 -68 -19 -39 -19 -41 -1 -59 11 -10
37 -21 59 -24 32 -4 44 0 71 22 31 26 52 76 52 127 0 26 -2 27 -27 17 -25 -9
-73 -6 -107 7 -8 3 -16 -5 -20 -22z"/>
<path d="M2523 2311 c-134 -63 -223 -219 -223 -392 0 -178 69 -263 196 -244
42 6 56 15 105 65 56 58 57 59 93 48 82 -25 160 32 154 113 l-3 41 -32 -46
c-19 -26 -43 -48 -58 -52 -34 -9 -78 14 -69 35 19 47 54 257 54 324 0 75 -1
80 -31 108 -42 39 -101 39 -186 0z m103 -53 c-74 -102 -85 -249 -27 -369 l18
-38 -29 -36 c-25 -30 -36 -36 -62 -33 -24 2 -35 11 -48 38 -35 69 -17 273 32
369 23 47 76 91 109 91 23 0 23 -1 7 -22z"/>
<path d="M3360 2313 c-39 -36 -74 -134 -67 -187 3 -21 15 -48 26 -59 19 -19
19 -22 4 -51 -9 -17 -27 -45 -39 -62 -17 -21 -24 -44 -24 -74 l0 -43 24 22
c13 12 45 60 71 107 41 73 52 85 83 94 20 5 37 8 39 6 2 -1 -6 -20 -16 -42
-59 -123 -74 -227 -43 -297 40 -89 110 -76 231 43 79 78 81 81 81 127 l0 47
-60 -62 c-34 -34 -67 -62 -75 -62 -8 0 -22 11 -31 25 -24 36 -17 75 60 347 20
69 36 131 36 137 0 6 -11 11 -25 11 -20 0 -30 -11 -55 -57 -37 -73 -66 -106
-109 -128 l-34 -17 7 24 c18 61 19 127 2 153 -21 32 -48 32 -86 -2z"/>
<path d="M4358 2329 c-10 -5 -18 -8 -18 -6 0 2 -24 -3 -52 -13 -51 -16 -54
-19 -70 -70 -65 -199 -90 -430 -54 -500 54 -104 109 -95 225 39 55 65 61 76
61 117 l0 46 -40 -51 c-49 -62 -75 -78 -97 -59 -23 19 -12 112 38 308 22 91
42 171 43 179 1 18 -15 23 -36 10z"/>
<path d="M5107 2312 c-97 -52 -189 -179 -223 -305 -39 -148 7 -317 91 -333 19
-3 46 -3 60 0 37 10 91 61 133 129 l37 61 7 -57 c11 -89 43 -137 90 -137 49 0
86 28 177 133 35 42 41 54 41 95 l0 47 -48 -51 c-66 -71 -78 -79 -97 -64 -30
25 -19 113 45 377 17 67 30 125 30 128 0 15 -37 0 -95 -40 l-66 -45 -9 24
c-12 33 -62 66 -97 65 -15 -1 -50 -13 -76 -27z m114 -62 c16 -9 19 -22 19 -78
0 -122 -59 -289 -118 -330 -38 -27 -50 -27 -73 0 -38 43 -15 206 46 331 37 75
80 101 126 77z"/>
<path d="M2280 1690 c0 -23 4 -30 20 -30 16 0 20 7 20 30 0 23 -4 30 -20 30
-16 0 -20 -7 -20 -30z"/>
<path d="M3250 1690 c0 -23 4 -30 20 -30 16 0 20 7 20 30 0 23 -4 30 -20 30
-16 0 -20 -7 -20 -30z"/>
<path d="M4120 1690 c0 -23 4 -30 20 -30 16 0 20 7 20 30 0 23 -4 30 -20 30
-16 0 -20 -7 -20 -30z"/>
<path d="M4850 1690 c0 -23 4 -30 20 -30 16 0 20 7 20 30 0 23 -4 30 -20 30
-16 0 -20 -7 -20 -30z"/>
<path d="M170 1595 c0 -45 0 -45 35 -45 35 0 35 0 35 45 0 45 0 45 -35 45 -35
0 -35 0 -35 -45z"/>
<path d="M3780 1595 c0 -45 0 -45 35 -45 35 0 35 0 35 45 0 45 0 45 -35 45
-35 0 -35 0 -35 -45z"/>
<path d="M7390 1595 c0 -45 0 -45 35 -45 35 0 35 0 35 45 0 45 0 45 -35 45
-35 0 -35 0 -35 -45z"/>
</g>
</svg>
