<?xml version="1.0" standalone="no"?>
<!DOCTYPE svg PUBLIC "-//W3C//DTD SVG 20010904//EN"
 "http://www.w3.org/TR/2001/REC-SVG-20010904/DTD/svg10.dtd">
<svg version="1.0" xmlns="http://www.w3.org/2000/svg"
 width="432.000000pt" height="432.000000pt" viewBox="0 0 432.000000 432.000000"
 preserveAspectRatio="xMidYMid meet">
<metadata>
Created by potrace 1.11, written by Peter Selinger 2001-2013
</metadata>
<g transform="translate(0.000000,432.000000) scale(0.100000,-0.100000)"
fill="#000000" stroke="none">
<path d="M1130 3260 l0 -100 50 0 50 0 0 100 0 100 -50 0 -50 0 0 -100z"/>
<path d="M710 3165 l-34 -35 72 -73 72 -72 37 38 38 37 -70 70 c-38 38 -72 70
-75 70 -3 0 -21 -16 -40 -35z"/>
<path d="M1545 3130 l-69 -70 34 -35 34 -35 73 72 73 72 -32 33 c-18 18 -35
33 -38 33 -3 0 -37 -31 -75 -70z"/>
<path d="M1058 3031 c-96 -38 -161 -101 -205 -197 -22 -48 -27 -74 -27 -141
l-1 -82 -45 -29 c-82 -52 -144 -150 -158 -250 l-7 -47 -283 -3 -282 -2 0 -75
0 -75 303 0 302 0 23 -40 c26 -46 106 -113 157 -131 44 -16 44 -25 2 -33 -81
-15 -122 -117 -75 -186 24 -35 56 -52 173 -87 55 -17 60 -20 63 -50 8 -84
-160 -85 -181 -1 -6 21 -11 23 -52 20 -43 -4 -45 -5 -39 -31 20 -84 87 -131
189 -131 116 1 175 50 175 145 0 81 -39 114 -172 149 -37 10 -72 24 -78 32
-31 37 24 81 87 69 24 -4 40 -15 51 -36 15 -25 23 -29 60 -29 32 0 42 4 42 16
0 31 -34 87 -64 105 l-31 19 93 0 92 0 0 -230 0 -230 45 0 45 0 1 178 0 177
43 -175 42 -175 45 -3 45 -3 40 167 c35 151 40 163 46 128 4 -21 7 -96 7 -166
l1 -128 40 0 40 0 0 230 0 230 110 0 c61 0 110 -4 110 -8 0 -5 -38 -106 -85
-226 -47 -119 -85 -219 -85 -221 0 -3 21 -5 48 -5 l47 0 18 50 18 50 92 0 93
0 18 -50 18 -50 49 0 c27 0 49 2 49 5 0 7 -159 405 -174 436 -13 26 -12 27 25
38 55 17 142 100 170 163 65 150 -3 329 -152 399 -43 19 -54 31 -76 76 -58
125 -199 229 -339 254 -47 8 -64 16 -72 32 -21 46 -83 105 -144 137 -56 30
-73 34 -153 37 -71 3 -100 -1 -137 -16z m201 -91 c42 -12 109 -57 122 -82 8
-14 6 -19 -8 -24 -72 -21 -168 -81 -221 -139 l-57 -62 -82 5 c-92 5 -90 3 -84
90 11 149 178 256 330 212z m367 -221 c80 -30 163 -113 192 -192 12 -32 22
-63 22 -70 0 -7 23 -18 51 -24 180 -43 221 -262 71 -368 l-44 -30 -494 -3
c-487 -3 -495 -2 -544 19 -61 26 -131 101 -148 157 -65 217 162 408 360 303
l54 -28 18 48 c19 54 100 145 154 173 95 49 202 54 308 15z m-156 -801 c0 -7
-18 -78 -39 -158 l-38 -145 -13 45 c-6 25 -25 93 -41 153 -16 59 -29 110 -29
112 0 3 36 5 80 5 57 0 80 -4 80 -12z m470 -260 c0 -5 -27 -8 -59 -8 l-60 0
18 53 c11 28 24 66 31 82 l12 30 29 -75 c16 -41 29 -78 29 -82z"/>
<path d="M520 2695 l0 -55 100 0 100 0 0 55 0 55 -100 0 -100 0 0 -55z"/>
<path d="M2263 1931 c-76 -19 -120 -79 -107 -147 10 -56 50 -86 152 -117 98
-29 122 -49 102 -87 -14 -27 -42 -40 -85 -40 -49 0 -74 15 -90 54 -13 29 -16
31 -54 28 -48 -5 -52 -21 -20 -83 26 -51 81 -78 161 -79 131 0 206 75 178 179
-15 56 -47 80 -151 109 -97 29 -123 48 -103 79 14 23 65 37 99 29 14 -4 34
-20 43 -36 15 -26 23 -30 60 -30 37 0 42 3 42 23 0 32 -35 84 -68 101 -37 19
-117 27 -159 17z"/>
<path d="M2590 1700 l0 -230 45 0 45 0 0 100 0 100 90 0 90 0 0 -100 0 -100
45 0 45 0 0 230 0 230 -45 0 -45 0 0 -90 0 -90 -90 0 -90 0 0 90 0 90 -45 0
-45 0 0 -230z"/>
<path d="M3010 1835 c0 -43 4 -75 10 -75 6 0 10 32 10 75 0 43 -4 75 -10 75
-6 0 -10 -32 -10 -75z"/>
<path d="M3060 1900 c0 -5 11 -10 25 -10 23 0 24 -3 28 -67 l3 -68 2 68 c2 64
3 67 27 67 14 0 25 5 25 10 0 6 -25 10 -55 10 -30 0 -55 -4 -55 -10z"/>
<path d="M2994 1633 c3 -10 14 -51 25 -92 11 -41 23 -76 25 -79 16 -15 36 15
51 77 9 39 18 71 20 71 2 0 11 -32 20 -71 15 -60 35 -92 49 -78 2 2 16 46 30
97 22 82 23 93 8 90 -11 -2 -22 -25 -33 -68 -9 -36 -18 -63 -19 -60 -1 3 -9
32 -18 65 -13 47 -21 60 -36 60 -20 0 -23 -8 -47 -95 l-12 -45 -16 70 c-12 52
-21 71 -35 73 -13 3 -17 -1 -12 -15z"/>
<path d="M3250 1555 l0 -95 75 0 c43 0 75 4 75 10 0 6 -27 10 -60 10 l-60 0 0
35 0 35 55 0 c30 0 55 5 55 10 0 6 -25 10 -55 10 -54 0 -55 0 -55 30 0 30 1
30 55 30 30 0 55 5 55 10 0 6 -30 10 -70 10 l-70 0 0 -95z"/>
<path d="M3442 1563 c-37 -100 -37 -103 -18 -103 8 0 19 14 25 30 8 26 15 30
45 30 29 0 36 -4 45 -30 5 -16 17 -30 25 -30 21 0 22 -4 -20 100 -47 118 -59
118 -102 3z m66 10 c10 -31 10 -33 -14 -33 -27 0 -29 6 -14 46 12 31 13 30 28
-13z"/>
<path d="M3560 1640 c0 -5 16 -10 35 -10 l35 0 0 -85 c0 -69 3 -85 15 -85 12
0 15 16 15 85 l0 85 30 0 c17 0 30 5 30 10 0 6 -33 10 -80 10 -47 0 -80 -4
-80 -10z"/>
<path d="M3740 1555 c0 -78 3 -95 15 -95 11 0 15 12 15 45 l0 45 45 0 45 0 0
-45 c0 -33 4 -45 15 -45 12 0 15 17 15 95 0 78 -3 95 -15 95 -11 0 -15 -11
-15 -40 l0 -40 -45 0 -45 0 0 40 c0 29 -4 40 -15 40 -12 0 -15 -17 -15 -95z"/>
<path d="M3930 1555 l0 -95 70 0 c40 0 70 4 70 10 0 6 -25 10 -55 10 l-55 0 0
35 0 35 50 0 c28 0 50 5 50 10 0 6 -22 10 -50 10 -49 0 -50 1 -50 30 0 30 1
30 55 30 30 0 55 5 55 10 0 6 -30 10 -70 10 l-70 0 0 -95z"/>
<path d="M4100 1555 c0 -78 3 -95 15 -95 11 0 15 11 15 40 0 54 27 54 72 -1
21 -25 41 -40 52 -38 14 3 12 9 -13 40 -29 35 -29 36 -10 52 21 19 25 67 7 85
-7 7 -39 12 -75 12 l-63 0 0 -95z m104 69 c9 -3 16 -16 16 -29 0 -25 -17 -35
-61 -35 -27 0 -29 3 -29 35 0 32 2 35 29 35 16 0 36 -3 45 -6z"/>
</g>
</svg>
