<?xml version="1.0" standalone="no"?>
<!DOCTYPE svg PUBLIC "-//W3C//DTD SVG 20010904//EN"
 "http://www.w3.org/TR/2001/REC-SVG-20010904/DTD/svg10.dtd">
<svg version="1.0" xmlns="http://www.w3.org/2000/svg"
 width="399.000000pt" height="399.000000pt" viewBox="0 0 399.000000 399.000000"
 preserveAspectRatio="xMidYMid meet">
<metadata>
Created by potrace 1.11, written by Peter Selinger 2001-2013
</metadata>
<g transform="translate(0.000000,399.000000) scale(0.100000,-0.100000)"
fill="#000000" stroke="none">
<path d="M1873 3290 c-34 -17 -69 -42 -78 -56 l-17 -26 -21 21 c-56 52 -176
67 -252 32 -37 -16 -91 -67 -112 -106 -8 -13 -14 -13 -42 -4 -19 7 -65 10
-109 7 -81 -5 -133 -25 -190 -73 -39 -33 -82 -119 -82 -165 0 -29 -5 -39 -23
-47 -40 -18 -87 -64 -107 -104 -33 -63 -23 -74 40 -43 25 13 49 15 104 11 l72
-6 28 35 c59 75 163 84 246 23 13 -9 22 -5 49 20 59 55 140 65 217 26 37 -19
65 -25 112 -25 35 0 72 -5 83 -10 15 -9 26 -6 52 14 17 13 48 31 68 39 25 10
38 23 43 43 10 38 40 75 84 101 46 28 135 31 204 6 l46 -16 32 26 c17 15 48
32 69 38 64 19 111 4 173 -57 17 -16 20 -16 58 2 22 10 40 24 40 30 0 32 -102
104 -148 104 -10 0 -35 21 -56 46 -56 67 -109 88 -208 82 -44 -3 -81 -1 -85 5
-3 5 -29 20 -57 33 -75 35 -155 33 -233 -6z"/>
<path d="M2389 3018 c-21 -5 -47 -20 -59 -33 -21 -22 -23 -23 -58 -8 -47 20
-137 20 -184 -1 -41 -18 -83 -66 -93 -108 -5 -18 -14 -28 -26 -28 -31 0 -98
-67 -105 -106 -8 -43 -22 -43 -63 0 -36 37 -104 61 -146 50 -16 -4 -43 3 -80
21 -71 35 -128 31 -190 -13 l-44 -31 -37 20 c-71 36 -163 17 -206 -42 -20 -27
-24 -28 -83 -22 -65 6 -133 -15 -173 -54 -25 -24 -52 -77 -52 -102 0 -12 -22
-42 -50 -69 -47 -45 -50 -51 -50 -99 0 -36 7 -60 24 -85 19 -28 23 -44 19 -84
-3 -37 1 -57 16 -82 25 -39 76 -72 112 -72 18 0 40 -13 66 -39 50 -51 105 -66
177 -51 49 10 58 9 97 -12 54 -28 151 -35 216 -17 28 8 63 30 87 52 35 33 45
37 93 37 83 0 156 44 178 107 11 32 19 39 49 45 82 17 140 69 161 144 7 27 14
41 14 32 1 -10 17 -36 37 -57 41 -46 117 -76 168 -67 26 5 37 2 52 -15 48 -53
176 -90 257 -75 19 4 52 18 72 32 35 23 41 24 90 14 85 -18 174 15 202 76 15
30 20 34 45 29 41 -9 129 20 160 52 45 47 61 119 37 164 -8 16 -6 30 10 63 39
79 18 160 -50 199 -21 12 -44 34 -50 49 -17 43 -72 78 -130 85 -31 4 -53 12
-56 21 -9 22 -103 62 -146 62 -21 0 -56 -9 -78 -20 l-40 -21 -30 25 c-27 23
-89 47 -114 45 -5 -1 -26 -5 -46 -11z m85 -117 c17 -7 17 -9 -10 -30 -19 -15
-39 -21 -63 -19 -46 4 -46 18 -1 40 38 19 45 20 74 9z m-171 -51 c4 0 7 -7 7
-15 0 -27 44 -38 165 -42 66 -2 155 -6 198 -9 75 -5 79 -7 98 -37 12 -20 17
-40 13 -52 -4 -11 -7 -44 -9 -74 -2 -63 -26 -91 -79 -91 -23 0 -41 -9 -61 -30
-25 -26 -36 -30 -80 -30 -29 0 -67 -7 -84 -16 -41 -20 -103 -14 -142 15 -16
12 -39 21 -53 21 -38 0 -71 16 -115 55 -39 36 -61 39 -61 9 0 -29 29 -71 57
-83 15 -6 36 -25 45 -41 19 -33 55 -51 103 -52 17 0 37 -7 45 -14 52 -44 145
-56 197 -24 26 16 38 17 62 9 41 -14 95 4 123 42 17 23 29 29 60 29 28 0 46 8
70 29 28 25 33 36 34 78 0 26 2 51 2 55 3 12 82 -33 92 -52 6 -10 10 -30 10
-44 0 -66 -51 -108 -132 -109 -44 -1 -51 -4 -64 -30 -26 -49 -102 -70 -170
-45 -28 10 -35 9 -58 -10 -57 -44 -170 -36 -244 18 -26 19 -50 27 -78 27 -57
0 -113 29 -132 69 -10 22 -25 35 -43 39 -58 13 -95 87 -68 136 8 16 7 29 -6
54 -9 21 -13 44 -9 60 7 27 57 75 79 75 7 0 24 19 37 43 30 55 73 71 138 51
25 -8 48 -14 53 -14z m-767 -165 c11 -8 41 -14 72 -15 56 0 106 -19 115 -44 3
-8 19 -17 36 -21 16 -3 42 -18 56 -33 25 -25 27 -32 22 -81 -4 -38 -1 -63 10
-84 30 -59 -15 -140 -86 -153 -50 -9 -71 -22 -71 -43 0 -41 -72 -81 -145 -81
-34 0 -50 -6 -74 -29 -56 -52 -162 -64 -235 -26 -21 11 -45 14 -91 9 -69 -7
-104 5 -142 50 -16 18 -33 26 -54 26 -21 0 -40 10 -61 30 -27 27 -30 35 -24
71 5 32 2 46 -14 66 -22 29 -26 80 -7 104 7 8 24 24 40 33 15 11 27 27 27 40
0 34 35 81 74 100 25 12 55 16 96 14 53 -2 60 0 80 24 12 15 39 32 61 38 33 9
46 8 85 -10 l46 -20 30 25 c23 20 41 25 82 25 30 0 60 -6 72 -15z"/>
<path d="M1555 2640 c-4 -6 5 -24 19 -41 19 -23 26 -41 25 -72 0 -23 2 -57 6
-75 10 -43 -14 -78 -62 -91 -27 -8 -42 -19 -51 -40 -13 -30 -54 -51 -100 -51
-13 0 -37 -11 -54 -25 -34 -29 -105 -34 -148 -12 -14 7 -44 11 -67 9 -30 -3
-55 3 -93 22 -62 31 -70 32 -70 7 0 -30 38 -70 75 -77 18 -3 36 -12 39 -19 10
-27 67 -48 115 -42 30 4 55 1 71 -8 52 -29 154 -13 189 29 8 9 29 16 50 16 47
0 100 33 114 70 7 18 19 30 30 30 32 0 76 29 93 62 14 27 14 37 3 72 -7 23
-11 46 -10 51 16 56 -15 117 -65 129 -13 4 -24 11 -24 16 0 10 -58 50 -72 50
-4 0 -10 -5 -13 -10z"/>
<path d="M3085 2303 c-18 -10 -54 -17 -91 -17 -59 0 -61 -1 -80 -35 -29 -53
-89 -83 -169 -82 -36 0 -74 5 -85 11 -15 8 -28 4 -65 -22 -40 -28 -56 -33
-120 -36 -90 -5 -154 14 -222 66 -43 33 -53 37 -98 34 -33 -2 -65 3 -95 16
l-45 19 -38 -28 c-21 -15 -63 -33 -94 -40 -55 -13 -58 -16 -77 -76 -7 -23 -6
-23 81 -23 111 0 163 -9 163 -26 0 -11 -23 -14 -107 -14 -59 0 -120 -4 -137
-9 -150 -43 -215 -70 -281 -113 -155 -102 -250 -255 -278 -450 -4 -27 -2 -38
10 -42 28 -11 1285 -7 1298 4 25 21 -22 197 -79 294 -38 65 -143 168 -212 208
-67 39 -158 76 -219 88 -38 7 -39 8 -8 9 24 1 31 5 27 16 -8 21 20 19 87 -4
258 -88 440 -308 463 -561 3 -30 5 -56 6 -57 0 -1 189 -2 420 -2 371 -1 421 1
427 15 8 22 -15 214 -38 312 -25 108 -77 241 -131 336 -59 104 -150 226 -168
226 -8 -1 -28 -8 -45 -17z"/>
<path d="M601 2224 c-142 -188 -259 -531 -249 -729 l3 -60 419 0 420 0 13 90
c15 107 66 221 136 308 26 31 47 61 47 66 0 5 -35 10 -78 12 -59 3 -90 10
-128 30 -45 23 -53 24 -84 13 -19 -7 -52 -13 -73 -13 -67 -2 -157 50 -157 89
0 13 -12 18 -55 23 -99 10 -142 63 -132 161 5 50 -3 76 -25 76 -4 0 -30 -30
-57 -66z"/>
<path d="M1650 1411 c0 -5 10 -11 22 -13 12 -2 23 -9 26 -15 3 -10 -116 -13
-570 -13 -315 0 -619 0 -676 0 l-103 0 3 -42 3 -43 1555 0 1555 0 3 43 3 42
-103 0 c-57 0 -453 1 -880 1 l-777 0 -3 22 c-2 16 -11 23 -30 25 -16 2 -28 -1
-28 -7z"/>
<path d="M1240 1133 c-81 -53 -114 -115 -86 -158 9 -14 25 -25 36 -25 17 0 19
5 14 24 -10 43 32 134 52 113 4 -3 -19 -75 -50 -160 -63 -172 -66 -190 -35
-185 16 2 28 21 50 78 48 123 48 123 46 20 l-2 -95 38 -3 37 -3 30 68 c40 92
61 132 55 108 -2 -11 -7 -49 -11 -85 -3 -36 -7 -69 -8 -75 0 -5 17 -10 38 -10
l40 0 12 60 c16 79 44 283 44 318 0 27 -2 28 -41 25 l-40 -3 -49 -115 -49
-115 -1 118 0 117 -47 -1 c-27 0 -59 -7 -73 -16z"/>
<path d="M2032 1124 c-27 -19 -30 -71 -4 -81 14 -6 13 -8 -8 -13 -22 -5 -26
-15 -42 -90 -25 -125 -24 -166 7 -186 28 -18 69 -13 97 13 15 13 20 12 46 -7
33 -24 80 -21 103 6 10 13 15 12 35 -7 17 -16 30 -20 51 -15 33 8 36 8 84 0
20 -3 39 -1 43 4 3 5 13 43 21 83 19 93 34 129 51 129 17 0 18 -26 2 -101 -15
-72 -3 -104 41 -114 41 -9 89 18 107 60 17 43 17 45 -1 45 -8 0 -19 -9 -25
-20 -6 -11 -18 -20 -27 -20 -13 0 -14 7 -9 38 20 111 19 139 -4 162 -18 18
-29 21 -56 15 l-35 -6 7 35 c13 71 13 71 -31 68 -22 -2 -41 -4 -42 -5 0 -1
-16 -67 -35 -146 -22 -98 -38 -147 -50 -155 -9 -5 -20 -8 -23 -5 -3 3 4 50 15
103 11 54 18 102 15 106 -3 5 -39 8 -80 8 -114 -1 -161 -40 -187 -156 -10 -49
-30 -74 -44 -59 -4 3 2 49 11 101 10 53 15 102 12 111 -4 8 1 18 9 23 22 12
14 61 -11 78 -18 12 -24 11 -43 -2z m238 -156 c-1 -17 -26 -118 -35 -140 -4
-10 -16 -18 -26 -18 -35 0 -22 108 18 152 19 21 43 24 43 6z"/>
<path d="M1613 1015 c-63 -27 -109 -140 -89 -219 8 -34 59 -60 101 -52 42 8
90 62 105 115 10 38 26 59 36 48 2 -2 -2 -36 -11 -76 -8 -40 -15 -77 -15 -82
0 -5 18 -9 40 -9 48 0 50 4 75 133 18 88 36 113 60 81 14 -20 51 -11 60 15 13
43 -26 72 -67 50 -16 -9 -23 -9 -26 0 -5 15 -82 14 -86 -1 -3 -7 -7 -25 -10
-40 -7 -30 -46 -41 -46 -13 0 24 -46 65 -72 65 -13 -1 -37 -7 -55 -15z m72
-44 c3 -5 1 -12 -5 -16 -6 -4 -7 -22 -4 -45 5 -30 2 -45 -16 -69 -29 -42 -50
-40 -50 3 0 75 52 163 75 127z"/>
</g>
</svg>
